<?xml version="1.0" encoding="UTF-8"?>
<!DOCTYPE svg PUBLIC "-//W3C//DTD SVG 1.1//EN" "http://www.w3.org/Graphics/SVG/1.1/DTD/svg11.dtd">
<svg xmlns="http://www.w3.org/2000/svg" version="1.1" width="242px" height="291px" style="shape-rendering:geometricPrecision; text-rendering:geometricPrecision; image-rendering:optimizeQuality; fill-rule:evenodd; clip-rule:evenodd" xmlns:xlink="http://www.w3.org/1999/xlink">
<g><path style="opacity:1" fill="#ff6e6d" d="M 95.5,112.5 C 97.5,112.5 99.5,112.5 101.5,112.5C 101.5,110.833 101.5,109.167 101.5,107.5C 101.5,105.833 101.5,104.167 101.5,102.5C 106.151,102.679 110.651,102.679 115,102.5C 118.143,93.5733 120.976,84.5733 123.5,75.5C 115.845,76.3105 108.178,76.4771 100.5,76C 112.128,52.5769 123.628,29.0769 135,5.5C 131.498,23.8401 127.665,42.1735 123.5,60.5C 130.48,59.8348 137.48,59.5015 144.5,59.5C 141.5,74.8333 138.5,90.1667 135.5,105.5C 140.186,106.037 144.853,106.704 149.5,107.5C 149.219,110.817 149.219,113.983 149.5,117C 165.119,120.872 179.952,126.706 194,134.5C 193.434,145.495 192.601,156.495 191.5,167.5C 195.548,167.395 199.548,167.728 203.5,168.5C 202.061,178.448 201.061,188.448 200.5,198.5C 196.119,198.628 191.785,198.295 187.5,197.5C 186.98,205.846 186.313,214.179 185.5,222.5C 136.181,235.946 88.8481,230.946 43.5,207.5C 43.1667,206.5 42.8333,205.5 42.5,204.5C 43.6805,197.21 44.3471,189.876 44.5,182.5C 40.8815,181.756 37.2148,181.423 33.5,181.5C 33.988,171.109 34.988,160.776 36.5,150.5C 40.4809,151.021 44.4809,151.354 48.5,151.5C 49.3071,140.761 50.6404,130.094 52.5,119.5C 66.4723,114.972 80.8056,112.639 95.5,112.5 Z"/></g>
<g><path style="opacity:1" fill="#ff6e6e" d="M 92.5,58.5 C 93.3764,58.3691 94.0431,58.7025 94.5,59.5C 91.3333,65.8333 88.1667,72.1667 85,78.5C 33.3719,102.421 13.0386,142.421 24,198.5C 29.0381,216.257 38.3714,231.257 52,243.5C 92.2561,233.258 131.089,237.258 168.5,255.5C 203.46,233.199 219.293,201.199 216,159.5C 209.963,122.302 189.797,95.9689 155.5,80.5C 154.824,74.3604 155.657,68.3604 158,62.5C 214.229,87.6015 238.895,130.935 232,192.5C 221.215,240.564 192.049,271.064 144.5,284C 95.6301,292.828 55.7968,277.995 25,239.5C 2.36392,206.045 -2.63608,170.045 10,131.5C 25.7956,93.8649 53.2956,69.5316 92.5,58.5 Z"/></g>
<g><path style="opacity:1" fill="#ff9f9f" d="M 101.5,107.5 C 101.5,109.167 101.5,110.833 101.5,112.5C 99.5,112.5 97.5,112.5 95.5,112.5C 96.9187,111.549 98.5853,111.216 100.5,111.5C 100.232,109.901 100.566,108.568 101.5,107.5 Z"/></g>
<g><path style="opacity:1" fill="#fffdfd" d="M 85.5,132.5 C 115.36,129.686 144.026,134.186 171.5,146C 172.122,147.569 172.456,149.236 172.5,151C 171.94,156.161 171.44,161.327 171,166.5C 169.823,179.813 167.989,192.98 165.5,206C 130.98,213.507 97.6472,210.007 65.5,195.5C 65.9856,175.451 67.6522,155.451 70.5,135.5C 75.6471,134.604 80.6471,133.604 85.5,132.5 Z"/></g>
<g><path style="opacity:1" fill="#ff6e6e" d="M 92.5,155.5 C 96.747,155.178 100.747,156.011 104.5,158C 107,161.167 109.5,164.333 112,167.5C 112.336,174.108 109.169,176.608 102.5,175C 100.607,172.697 98.607,170.53 96.5,168.5C 93.2721,172.265 89.2721,173.765 84.5,173C 81.7104,170.79 80.877,167.956 82,164.5C 85.6646,161.601 89.1646,158.601 92.5,155.5 Z"/></g>
<g><path style="opacity:1" fill="#ff6e6e" d="M 136.5,160.5 C 140.869,159.923 144.869,160.757 148.5,163C 150.293,165.795 152.46,168.295 155,170.5C 156.875,177.282 154.375,180.448 147.5,180C 144.84,178.173 142.506,176.006 140.5,173.5C 138.483,174.174 136.817,175.341 135.5,177C 127.719,179.558 124.552,176.725 126,168.5C 129.4,165.586 132.9,162.92 136.5,160.5 Z"/></g>
</svg>
